<svg xmlns="http://www.w3.org/2000/svg" viewBox="0 0 200 200" fill="none" shape-rendering="auto"><metadata xmlns:rdf="http://www.w3.org/1999/02/22-rdf-syntax-ns#" xmlns:xsi="http://www.w3.org/2001/XMLSchema-instance" xmlns:dc="http://purl.org/dc/elements/1.1/" xmlns:dcterms="http://purl.org/dc/terms/"><rdf:RDF><rdf:Description><dc:title>Fun Emoji Set</dc:title><dc:creator>Davis Uche</dc:creator><dc:source xsi:type="dcterms:URI">https://www.figma.com/community/file/968125295144990435</dc:source><dcterms:license xsi:type="dcterms:URI">https://creativecommons.org/licenses/by/4.0/</dcterms:license><dc:rights>Remix of „Fun Emoji Set” (https://www.figma.com/community/file/968125295144990435) by „Davis Uche”, licensed under „CC BY 4.0” (https://creativecommons.org/licenses/by/4.0/)</dc:rights></rdf:Description></rdf:RDF></metadata><mask id="viewboxMask"><rect width="200" height="200" rx="0" ry="0" x="0" y="0" fill="#fff" /></mask><g mask="url(#viewboxMask)"><rect fill="#d1d4f9" width="200" height="200" x="0" y="0" /><g transform="matrix(1.5625 0 0 1.5625 37.5 110.94)"><path fill-rule="evenodd" clip-rule="evenodd" d="M103.74-7.96V.67c-.16.12-.33.22-.5.3L87.07 9.47l-1.89 21.13c-.47 5.03-3.69 9.67-6.32 13.6L89.37 53a29.19 29.19 0 0 1-7.57 3.33l-7.9-6.68a27.93 27.93 0 0 1-15.79 6.56l-7.75.64c-7.43.63-14.9.63-22.33 0l-7.97-.67a28 28 0 0 1-14.9-5.88l-7.04 5.97a30.02 30.02 0 0 1-7.52-3.3l9.27-7.9C-3.22 40.97-6.7 36-7.2 30.57L-9.17 8.54l-14.15-7.5c-.22-.1-.43-.23-.61-.4v-8.62l19.75 9.9h88.26l19.66-9.87Z" fill="#000" style="mix-blend-mode:soft-light" opacity=".4"/><g fill="#ECF5F8"><path fill-rule="evenodd" clip-rule="evenodd" d="m58.05 53.27-7.77.65c-7.42.62-14.88.62-22.3 0L20 53.24a28.05 28.05 0 0 1-17.48-8.1 28.29 28.29 0 0 1-8.2-17.5L-8.24-1.02H86.3l-2.56 28.67a28.32 28.32 0 0 1-8.2 17.5 28.08 28.08 0 0 1-17.48 8.12Z"/><path fill-rule="evenodd" clip-rule="evenodd" d="M103.26-1.96 82.92 7.8l-3.19-6.66 24.08-12.06a.82.82 0 0 1 1.19.75l-.12 5.76a2.86 2.86 0 0 1-1.62 2.44ZM-23.26-1.96-2.92 7.8.27 1.15-23.81-10.9a.82.82 0 0 0-1.19.75l.12 5.76a2.86 2.86 0 0 0 1.62 2.44Z"/><path d="m74.16 37.33 17 14.37a.87.87 0 0 1 .11 1.22l-1.88 2.25a3.6 3.6 0 0 1-5.1.44L69.4 43.02l4.71-5.62.06-.07ZM10.25 43.07l-14.9 12.6a3.6 3.6 0 0 1-5.1-.45l-1.88-2.25a.87.87 0 0 1 .1-1.22L5.48 37.38l4.71 5.63.05.06Z"/></g><path fill-rule="evenodd" clip-rule="evenodd" d="M39.1 48.58c-3.34 0-6.72-.13-10.04-.41l-7.42-.62A22.24 22.24 0 0 1 7.8 41.1c-3.71-3.71-6-8.63-6.47-13.87L-.73 4.78h79.51l-2.02 22.46a22.41 22.41 0 0 1-6.48 13.89c-3.72 3.71-8.63 5.99-13.87 6.42l-7.22.62c-3.35.34-6.75.41-10.1.41Z" fill="#E1EFF5"/><path d="M4.68 10.04c10.38 9.16 57.66 9.76 69.09 0a333.93 333.93 0 0 1-69.09 0ZM6.44 22.82c9.85 9.15 54.73 9.76 65.57 0a301.86 301.86 0 0 1-65.56 0ZM9.37 35.59c8.95 9.15 49.84 9.76 59.71 0a250.49 250.49 0 0 1-59.71 0Z" style="mix-blend-mode:soft-light" opacity=".8" fill="#000"/></g><g transform="matrix(1.5625 0 0 1.5625 31.25 59.38)"><path d="M74.38 30.06a13 13 0 0 0 13-13v-.66C87.38 5.95 75.83-.82 68.45.15c-6.54.83-7.07 5.02-7.07 11.24v5.67a13.01 13.01 0 0 0 13 13Z" fill="#000"/><path d="M70.2 9.73a2.29 2.29 0 1 0 0-4.58 2.29 2.29 0 0 0 0 4.58Z" fill="#fff"/><path opacity=".1" d="M74.44 18.54a5.32 5.32 0 1 0 0-10.65 5.32 5.32 0 0 0 0 10.65Z" fill="#fff"/><path d="M13.37 30.06a13.01 13.01 0 0 1-13-13v-.66C.38 5.95 11.93-.82 19.32.15c6.56.83 7.07 5.02 7.07 11.24v5.67a13 13 0 0 1-13 13Z" fill="#000"/><path d="M9.22 9.73a2.29 2.29 0 1 0 0-4.58 2.29 2.29 0 0 0 0 4.58Z" fill="#fff"/><path opacity=".1" d="M13.46 18.54a5.32 5.32 0 1 0 0-10.65 5.32 5.32 0 0 0 0 10.65Z" fill="#fff"/><path d="M89.38 45.6a6.27 6.27 0 0 1-1.85 4.54 6.56 6.56 0 0 1-9.2.1 6.32 6.32 0 0 1-1.95-4.48c0-5.1 4.1-7.53 6.3-15.7 1.98 7.96 6.64 9.9 6.7 15.55Z" fill="#4ABCF4"/></g></g></svg>