<svg xmlns="http://www.w3.org/2000/svg" viewBox="0 0 200 200" fill="none" shape-rendering="auto"><metadata xmlns:rdf="http://www.w3.org/1999/02/22-rdf-syntax-ns#" xmlns:xsi="http://www.w3.org/2001/XMLSchema-instance" xmlns:dc="http://purl.org/dc/elements/1.1/" xmlns:dcterms="http://purl.org/dc/terms/"><rdf:RDF><rdf:Description><dc:title>Fun Emoji Set</dc:title><dc:creator>Davis Uche</dc:creator><dc:source xsi:type="dcterms:URI">https://www.figma.com/community/file/968125295144990435</dc:source><dcterms:license xsi:type="dcterms:URI">https://creativecommons.org/licenses/by/4.0/</dcterms:license><dc:rights>Remix of „Fun Emoji Set” (https://www.figma.com/community/file/968125295144990435) by „Davis Uche”, licensed under „CC BY 4.0” (https://creativecommons.org/licenses/by/4.0/)</dc:rights></rdf:Description></rdf:RDF></metadata><mask id="viewboxMask"><rect width="200" height="200" rx="0" ry="0" x="0" y="0" fill="#fff" /></mask><g mask="url(#viewboxMask)"><rect fill="#c0aede" width="200" height="200" x="0" y="0" /><g transform="matrix(1.5625 0 0 1.5625 37.5 110.94)"><path fill-rule="evenodd" clip-rule="evenodd" d="M6.03 37.05c0-48 70-48 70 0h-70Z" fill="#2B1607"/><path fill-rule="evenodd" clip-rule="evenodd" d="M17.12 11.74c11.86-13.39 34.95-13.28 48 0h-48Z" fill="#fff"/><path d="M7.02 29.8h67.96c.32 2.32.47 4.66.44 7h-69c0-2.35.2-4.7.6-7Z" fill="#fff"/><path d="M75.97 38H6.03A1.03 1.03 0 0 1 5 36.97C5 11.6 23.66 0 41 0c17.36 0 36 11.61 36 36.93A1.02 1.02 0 0 1 75.97 38Zm-68.9-2.06h67.8c-.22-10.34-3.87-19-10.58-25.13a34.44 34.44 0 0 0-23.34-8.7C24.89 2.12 7.58 12.72 7.07 35.94Z" fill="#000"/></g><g transform="matrix(1.5625 0 0 1.5625 31.25 59.38)"><path d="M16.41 26.96H9.82c-9.7 0-9.7.08-9.7-9.7v-4.09A12.2 12.2 0 0 1 12.32.97h1.6a12.2 12.2 0 0 1 12.2 12.2v4.16c-.03 9.7-.03 9.63-9.7 9.63Z" fill="#000"/><path d="M8.87 10.5a2.29 2.29 0 1 0 0-4.58 2.29 2.29 0 0 0 0 4.58Z" fill="#fff"/><path opacity=".1" d="M13.11 19.31a5.32 5.32 0 1 0 0-10.64 5.32 5.32 0 0 0 0 10.64Z" fill="#fff"/><path d="M62.7 19.96a1.68 1.68 0 0 1-1.5-.93 1.75 1.75 0 0 1-.12-1.32 13.54 13.54 0 0 1 4.85-7.09A13.1 13.1 0 0 1 74 7.97c2.9-.03 5.73.9 8.06 2.66a13.63 13.63 0 0 1 4.87 7.08c.13.44.08.92-.13 1.32a1.72 1.72 0 0 1-2.3.73 1.69 1.69 0 0 1-.83-1.03c-.63-2.13-1.91-4-3.66-5.32a9.92 9.92 0 0 0-6.07-2c-2.17 0-4.28.7-6.02 2.02a10.26 10.26 0 0 0-3.64 5.3c-.1.35-.32.66-.6.88a1.7 1.7 0 0 1-.98.35Z" fill="#000"/></g></g></svg>