<svg xmlns="http://www.w3.org/2000/svg" viewBox="0 0 200 200" fill="none" shape-rendering="auto"><metadata xmlns:rdf="http://www.w3.org/1999/02/22-rdf-syntax-ns#" xmlns:xsi="http://www.w3.org/2001/XMLSchema-instance" xmlns:dc="http://purl.org/dc/elements/1.1/" xmlns:dcterms="http://purl.org/dc/terms/"><rdf:RDF><rdf:Description><dc:title>Fun Emoji Set</dc:title><dc:creator>Davis Uche</dc:creator><dc:source xsi:type="dcterms:URI">https://www.figma.com/community/file/968125295144990435</dc:source><dcterms:license xsi:type="dcterms:URI">https://creativecommons.org/licenses/by/4.0/</dcterms:license><dc:rights>Remix of „Fun Emoji Set” (https://www.figma.com/community/file/968125295144990435) by „Davis Uche”, licensed under „CC BY 4.0” (https://creativecommons.org/licenses/by/4.0/)</dc:rights></rdf:Description></rdf:RDF></metadata><mask id="viewboxMask"><rect width="200" height="200" rx="0" ry="0" x="0" y="0" fill="#fff" /></mask><g mask="url(#viewboxMask)"><rect fill="#d1d4f9" width="200" height="200" x="0" y="0" /><g transform="matrix(1.5625 0 0 1.5625 37.5 110.94)"><path d="M75.08 12a1.37 1.37 0 0 1 1.26.83 15.26 15.26 0 0 1-15.67 22.03 15.2 15.2 0 0 1-9.53-5.26 1.48 1.48 0 0 1 1.15-2.09c.3-.04.61.02.88.17a12.52 12.52 0 0 0 16.54 2.35c4.01-2.7 7.51-8.54 4.1-16.07a1.48 1.48 0 0 1 .77-1.83c.16-.08.34-.12.51-.13Z" fill="#000"/></g><g transform="matrix(1.5625 0 0 1.5625 31.25 59.38)"><g fill-rule="evenodd" clip-rule="evenodd"><path d="M19.16 32.01C11.5 28.4-2.17 22.5-5.14 12.06a10.8 10.8 0 0 1-.36-1.46C-7.32.33 3.58-6.92 13.46.1 19.24-8.3 29.2-7.43 33.28-.83a12.1 12.1 0 0 1 1.6 4.25c2 11.3-9.5 22.27-15.72 28.6Z" fill="#CE0F0F"/><path opacity=".2" d="M17.73 28.61C10.96 25.4-.53 20.41-5.13 12.06a10.8 10.8 0 0 1-.37-1.46C-7.32.33 3.58-6.92 13.46.1 19.24-8.3 29.2-7.43 33.28-.83c0 .27.13.55.18.83 1.96 11.33-9.5 22.23-15.73 28.62Z" fill="#fff"/><path opacity=".4" d="M-3.74 9.01C-3.18 4.7 5.96-.95 9.74.12 2.38-1.9-2.71 1.58-3.74 9.02Z" fill="#fff"/><path d="M70.07 32.01c7.66-3.62 21.33-9.52 24.29-19.95.15-.48.28-.97.36-1.46C96.54.33 85.65-6.92 75.76.1 69.98-8.3 60.04-7.43 55.95-.83a12.1 12.1 0 0 0-1.6 4.25c-2.03 11.3 9.5 22.27 15.72 28.6Z" fill="#CE0F0F"/><path opacity=".2" d="M71.5 28.61c6.77-3.21 18.25-8.2 22.86-16.55.15-.48.28-.97.36-1.46C96.54.33 85.65-6.92 75.76.1 69.98-8.3 60.04-7.43 55.94-.83c0 .27-.13.55-.17.83-2.03 11.33 9.5 22.23 15.72 28.62Z" fill="#fff"/><path opacity=".4" d="M92.95 9.01C92.41 4.7 83.25-.95 79.47.12 86.85-1.9 92 1.58 92.95 9.02Z" fill="#fff"/></g></g></g></svg>