<svg xmlns="http://www.w3.org/2000/svg" viewBox="0 0 200 200" fill="none" shape-rendering="auto"><metadata xmlns:rdf="http://www.w3.org/1999/02/22-rdf-syntax-ns#" xmlns:xsi="http://www.w3.org/2001/XMLSchema-instance" xmlns:dc="http://purl.org/dc/elements/1.1/" xmlns:dcterms="http://purl.org/dc/terms/"><rdf:RDF><rdf:Description><dc:title>Fun Emoji Set</dc:title><dc:creator>Davis Uche</dc:creator><dc:source xsi:type="dcterms:URI">https://www.figma.com/community/file/968125295144990435</dc:source><dcterms:license xsi:type="dcterms:URI">https://creativecommons.org/licenses/by/4.0/</dcterms:license><dc:rights>Remix of „Fun Emoji Set” (https://www.figma.com/community/file/968125295144990435) by „Davis Uche”, licensed under „CC BY 4.0” (https://creativecommons.org/licenses/by/4.0/)</dc:rights></rdf:Description></rdf:RDF></metadata><mask id="viewboxMask"><rect width="200" height="200" rx="0" ry="0" x="0" y="0" fill="#fff" /></mask><g mask="url(#viewboxMask)"><rect fill="#ffd5dc" width="200" height="200" x="0" y="0" /><g transform="matrix(1.5625 0 0 1.5625 37.5 110.94)"><path fill-rule="evenodd" clip-rule="evenodd" d="M6.03 37.05c0-48 70-48 70 0h-70Z" fill="#2B1607"/><path fill-rule="evenodd" clip-rule="evenodd" d="M17.12 11.74c11.86-13.39 34.95-13.28 48 0h-48Z" fill="#fff"/><path d="M7.02 29.8h67.96c.32 2.32.47 4.66.44 7h-69c0-2.35.2-4.7.6-7Z" fill="#fff"/><path d="M75.97 38H6.03A1.03 1.03 0 0 1 5 36.97C5 11.6 23.66 0 41 0c17.36 0 36 11.61 36 36.93A1.02 1.02 0 0 1 75.97 38Zm-68.9-2.06h67.8c-.22-10.34-3.87-19-10.58-25.13a34.44 34.44 0 0 0-23.34-8.7C24.89 2.12 7.58 12.72 7.07 35.94Z" fill="#000"/></g><g transform="matrix(1.5625 0 0 1.5625 31.25 59.38)"><path d="M63.16 19.11a1.68 1.68 0 0 1-1.5-.93 1.75 1.75 0 0 1-.12-1.32 13.54 13.54 0 0 1 4.85-7.1 13.1 13.1 0 0 1 8.07-2.65v.01c2.9-.01 5.73.92 8.06 2.68a13.63 13.63 0 0 1 4.87 7.08c.13.44.08.91-.13 1.32a1.72 1.72 0 0 1-2.3.73 1.69 1.69 0 0 1-.83-1.03c-.63-2.13-1.91-4-3.66-5.32a9.92 9.92 0 0 0-6.07-2c-2.17 0-4.28.7-6.02 2.02a10.26 10.26 0 0 0-3.64 5.3c-.1.35-.32.65-.6.87a1.7 1.7 0 0 1-.98.36ZM2.17 19.11a1.4 1.4 0 0 1-.5-.08 1.68 1.68 0 0 1-1.01-.85 1.75 1.75 0 0 1-.12-1.32 13.57 13.57 0 0 1 4.85-7.1 13.12 13.12 0 0 1 8.07-2.65v.01c2.9-.02 5.73.92 8.06 2.67a13.6 13.6 0 0 1 4.86 7.09 1.75 1.75 0 0 1-.53 1.85c-.18.14-.38.25-.6.32-.42.13-.9.09-1.3-.12-.4-.22-.7-.59-.83-1.03-.62-2.13-1.9-4-3.65-5.31a9.92 9.92 0 0 0-6.06-2.01 9.92 9.92 0 0 0-6.03 2.02 10.26 10.26 0 0 0-3.64 5.3c-.1.35-.31.65-.6.87-.27.22-.61.35-.97.36Z" fill="#000"/></g></g></svg>