<svg xmlns="http://www.w3.org/2000/svg" viewBox="0 0 200 200" fill="none" shape-rendering="auto"><metadata xmlns:rdf="http://www.w3.org/1999/02/22-rdf-syntax-ns#" xmlns:xsi="http://www.w3.org/2001/XMLSchema-instance" xmlns:dc="http://purl.org/dc/elements/1.1/" xmlns:dcterms="http://purl.org/dc/terms/"><rdf:RDF><rdf:Description><dc:title>Fun Emoji Set</dc:title><dc:creator>Davis Uche</dc:creator><dc:source xsi:type="dcterms:URI">https://www.figma.com/community/file/968125295144990435</dc:source><dcterms:license xsi:type="dcterms:URI">https://creativecommons.org/licenses/by/4.0/</dcterms:license><dc:rights>Remix of „Fun Emoji Set” (https://www.figma.com/community/file/968125295144990435) by „Davis Uche”, licensed under „CC BY 4.0” (https://creativecommons.org/licenses/by/4.0/)</dc:rights></rdf:Description></rdf:RDF></metadata><mask id="viewboxMask"><rect width="200" height="200" rx="0" ry="0" x="0" y="0" fill="#fff" /></mask><g mask="url(#viewboxMask)"><rect fill="#d1d4f9" width="200" height="200" x="0" y="0" /><g transform="matrix(1.5625 0 0 1.5625 37.5 110.94)"><path fill-rule="evenodd" clip-rule="evenodd" d="M6.03 37.05c0-48 70-48 70 0h-70Z" fill="#2B1607"/><path fill-rule="evenodd" clip-rule="evenodd" d="M17.12 11.74c11.86-13.39 34.95-13.28 48 0h-48Z" fill="#fff"/><path d="M7.02 29.8h67.96c.32 2.32.47 4.66.44 7h-69c0-2.35.2-4.7.6-7Z" fill="#fff"/><path d="M75.97 38H6.03A1.03 1.03 0 0 1 5 36.97C5 11.6 23.66 0 41 0c17.36 0 36 11.61 36 36.93A1.02 1.02 0 0 1 75.97 38Zm-68.9-2.06h67.8c-.22-10.34-3.87-19-10.58-25.13a34.44 34.44 0 0 0-23.34-8.7C24.89 2.12 7.58 12.72 7.07 35.94Z" fill="#000"/></g><g transform="matrix(1.5625 0 0 1.5625 31.25 59.38)"><g fill-rule="evenodd" clip-rule="evenodd"><path d="m7.3-9.5 1.82-1.6L19.18 3.35l17.5-1.54-7.85 15.71 9.31 14.07-1.8 1.58-17.32-2.23L5.76 42.48 2.82 24.74l-15.06-9.03 1.82-1.58 13.77-6.5L7.3-9.52Z" fill="#2B8DD6"/><path d="M9.11-11.1 21.63 1.24 39.13-.3 31.27 15.4l6.86 16.17-17.36-2.61L7.52 40.5 4.64 23.16l-15.06-9.04 15.59-8.1L9.1-11.08Z" fill="#70CDF2"/><path opacity=".4" d="M10.27-8 20.64 3.03 35.35 1.2 18.37 5.67l-8.9-9.8.8-3.87Z" fill="#fff"/><path d="m83.18-9.5-1.8-1.6L71.3 3.35 53.8 1.8l7.85 15.71-9.31 14.07 1.82 1.58 17.32-2.23 13.24 11.55 2.94-17.74 15.06-9.03-1.8-1.58-13.8-6.5-3.94-17.13Z" fill="#2B8DD6"/><path d="M81.38-11.1 68.87 1.24 51.36-.3l7.86 15.72-6.88 16.17 17.38-2.61L82.96 40.5l2.9-17.34 15.06-9.04-15.6-8.1-3.94-17.11Z" fill="#70CDF2"/><path opacity=".4" d="M80.2-8 69.85 3.03 55.14 1.2l16.99 4.47L81-4.13 80.21-8Z" fill="#fff"/></g></g></g></svg>