<svg xmlns="http://www.w3.org/2000/svg" viewBox="0 0 200 200" fill="none" shape-rendering="auto"><metadata xmlns:rdf="http://www.w3.org/1999/02/22-rdf-syntax-ns#" xmlns:xsi="http://www.w3.org/2001/XMLSchema-instance" xmlns:dc="http://purl.org/dc/elements/1.1/" xmlns:dcterms="http://purl.org/dc/terms/"><rdf:RDF><rdf:Description><dc:title>Fun Emoji Set</dc:title><dc:creator>Davis Uche</dc:creator><dc:source xsi:type="dcterms:URI">https://www.figma.com/community/file/968125295144990435</dc:source><dcterms:license xsi:type="dcterms:URI">https://creativecommons.org/licenses/by/4.0/</dcterms:license><dc:rights>Remix of „Fun Emoji Set” (https://www.figma.com/community/file/968125295144990435) by „Davis Uche”, licensed under „CC BY 4.0” (https://creativecommons.org/licenses/by/4.0/)</dc:rights></rdf:Description></rdf:RDF></metadata><mask id="viewboxMask"><rect width="200" height="200" rx="0" ry="0" x="0" y="0" fill="#fff" /></mask><g mask="url(#viewboxMask)"><rect fill="#ffdfbf" width="200" height="200" x="0" y="0" /><g transform="matrix(1.5625 0 0 1.5625 37.5 110.94)"><path d="M53.92 35a1.37 1.37 0 0 1-1.26-.83 15.26 15.26 0 0 1 15.67-22.03c3.71.52 7.1 2.39 9.53 5.26a1.48 1.48 0 0 1-1.15 2.09c-.3.04-.61-.02-.88-.17a12.52 12.52 0 0 0-16.54-2.35c-4.01 2.7-7.51 8.54-4.1 16.07a1.48 1.48 0 0 1-.76 1.83 1.3 1.3 0 0 1-.51.13Z" fill="#000"/></g><g transform="matrix(1.5625 0 0 1.5625 31.25 59.38)"><path d="M75.76 21.94c-2.9.04-5.72-.89-8.04-2.63a13.47 13.47 0 0 1-4.85-7.03 1.75 1.75 0 0 1 .49-1.92 1.7 1.7 0 0 1 2.76.9c.6 2.12 1.88 3.98 3.62 5.29a9.84 9.84 0 0 0 6.04 1.98c2.17.01 4.29-.68 6.03-2a10.17 10.17 0 0 0 3.65-5.26c.15-.42.46-.75.85-.95a1.68 1.68 0 0 1 2.24.7c.21.38.27.83.17 1.26a13.48 13.48 0 0 1-4.87 7.04 13.17 13.17 0 0 1-8.08 2.62ZM13.76 21.94c-2.9.03-5.73-.9-8.06-2.65a13.54 13.54 0 0 1-4.85-7.06 1.78 1.78 0 0 1 .51-1.88 1.67 1.67 0 0 1 2.4.22c.15.17.25.38.32.6.62 2.1 1.9 3.96 3.64 5.28a9.93 9.93 0 0 0 6.02 2c2.18.03 4.3-.67 6.06-1.99a10.22 10.22 0 0 0 3.66-5.3 1.68 1.68 0 0 1 3.08-.25c.21.4.27.85.17 1.27a13.57 13.57 0 0 1-4.87 7.1 13.19 13.19 0 0 1-8.08 2.65Z" fill="#000"/></g></g></svg>